<svg version="1.1" xmlns="http://www.w3.org/2000/svg" width="512" height="512" viewBox="0 0 512 512">
<title></title>
<g id="icomoon-ignore">
</g>
<path d="M144 288h-32v224h32c8.8 0 16-7.2 16-16v-192c0-8.8-7.2-16-16-16z"></path>
<path d="M368 288c-8.801 0-16 7.2-16 16v192c0 8.8 7.199 16 16 16h32v-224h-32z"></path>
<path d="M512 256c0-141.385-114.615-256-256-256s-256 114.615-256 256c0 30.706 5.415 60.145 15.328 87.424-9.739 16.603-15.328 35.935-15.328 56.576 0 56.423 41.724 103.094 96 110.858v-221.709c-15.957 2.283-30.832 7.921-43.877 16.189-2.696-13.359-4.123-27.182-4.123-41.338 0-114.875 93.125-208 208-208s208 93.125 208 208c0 14.157-1.415 27.984-4.11 41.348-13.050-8.273-27.927-13.924-43.89-16.209v221.72c54.274-7.766 96-54.437 96-110.857 0-20.637-5.589-39.967-15.324-56.569 9.914-27.283 15.324-56.726 15.324-87.433z"></path>
</svg>
