<svg version="1.1" xmlns="http://www.w3.org/2000/svg" width="512" height="512" viewBox="0 0 512 512">
<title></title>
<g id="icomoon-ignore">
</g>
<path d="M256 512c141.385 0 256-114.615 256-256s-114.615-256-256-256-256 114.615-256 256 114.615 256 256 256zM256 48c114.875 0 208 93.125 208 208s-93.125 208-208 208-208-93.125-208-208 93.125-208 208-208zM128 160c0-17.673 14.327-32 32-32s32 14.327 32 32-14.327 32-32 32-32-14.327-32-32zM320 160c0-17.673 14.327-32 32-32s32 14.327 32 32-14.327 32-32 32-32-14.327-32-32z"></path>
<path d="M337.941 270.059c-18.745-18.745-49.138-18.745-67.883 0s-18.745 49.138 0 67.883c0.602 0.602 1.217 1.184 1.842 1.746 43.264 39.256 144.1-0.921 144.1-51.688-31 20-55.225 4.893-78.059-17.941z"></path>
<path d="M174.059 270.059c18.745-18.745 49.138-18.745 67.883 0s18.745 49.138 0 67.883c-0.602 0.602-1.217 1.184-1.842 1.746-43.264 39.256-144.1-0.921-144.1-51.688 31 20 55.225 4.893 78.059-17.941z"></path>
</svg>
