<svg width="512" height="512" xmlns="http://www.w3.org/2000/svg">
 <title/>

 <g>
  <title>background</title>
  <rect fill="none" id="canvas_background" height="402" width="582" y="-1" x="-1"/>
 </g>
 <g>
  <title>Layer 1</title>
  <g id="icomoon-ignore"/>
  <path id="svg_2" d="m458.903,114.538c-11.105,-15.146 -26.587,-32.85 -43.589,-49.852s-34.706,-32.482 -49.852,-43.589c-25.787,-18.91 -38.296,-21.097 -45.462,-21.097l-248,0c-22.056,0 -40,17.944 -40,40l0,432c0,22.056 17.943,40 40,40l368,0c22.056,0 40,-17.944 40,-40l0,-312c0,-7.166 -2.186,-19.675 -21.097,-45.462l0,0zm-66.216,-27.225c15.35,15.35 27.4,29.199 36.29,40.687l-76.977,0l0,-76.973c11.491,8.89 25.339,20.939 40.687,36.286l0,0zm55.313,384.687c0,4.336 -3.664,8 -8,8l-368,0c-4.336,0 -8,-3.664 -8,-8l0,-432c0,-4.336 3.664,-8 8,-8c0,0 247.978,-0.001 248,0l0,112c0,8.836 7.162,16 16,16l112,0l0,312z"/>
  <text stroke="null" transform="matrix(6.654960935535103,0,0,9.541771359380903,-595.9789656044992,-1768.8016033582066) " font-weight="bold" xml:space="preserve" text-anchor="start" font-family="Oswald, sans-serif" font-size="24" id="svg_3" y="223.847961" x="101.940239" fill-opacity="null" stroke-opacity="null" stroke-width="0" fill="#000000">OFD</text>
 </g>
</svg>