<svg width="300" height="300" xmlns="http://www.w3.org/2000/svg" version="1.1">
 <title/>

 <g>
  <title>background</title>
  <rect fill="none" id="canvas_background" height="302" width="302" y="-1" x="-1"/>
 </g>
 <g>
  <title>Layer 1</title>
  <g id="icomoon-ignore"/>
  <path stroke="null" id="svg_1" d="m164.169206,200.861383c4.337036,-0.361465 36.02198,1.982083 35.037388,8.475281c-0.984591,6.492655 -2.297516,-210.571672 5.060102,-207.441646c7.357618,3.129754 3.613428,-0.81866 3.613428,0c0,0.818252 1.463648,237.27459 -0.343677,242.695886c-7.950464,24.574593 -36.862365,47.342541 -66.496382,52.763293c-6.505011,1.084259 -17.347195,1.084259 -22.045425,0.361872c-14.816805,-3.252913 -23.852207,-10.48099 -27.104984,-22.406754c-0.722387,-2.167975 -0.722387,-3.614514 -0.722387,-7.951143c0,-5.420752 0,-7.589271 1.806782,-13.009887c2.891584,-9.396595 9.035402,-18.43159 17.347195,-26.74379c14.456154,-14.455611 34.333061,-24.212857 53.848095,-26.743247l-0.000136,0.000136z"/>
 </g>
</svg>